HIERARCHY
ROOT Root
{
  OFFSET 0.0 0.0 0.0
  CHANNELS 6 Xposition Yposition Zposition Zrotation Yrotation Xrotation
  JOINT Hips
  {
    OFFSET 0.0 100.0 0.0
    CHANNELS 6 Xposition Yposition Zposition Zrotation Yrotation Xrotation
    JOINT Spine1
    {
      OFFSET -0.013727 5.003763 -0.053727
      CHANNELS 3 Zrotation Yrotation Xrotation
      JOINT Spine2
      {
        OFFSET -0.0 7.125301 -0.029825
        CHANNELS 3 Zrotation Yrotation Xrotation
        JOINT Chest
        {
          OFFSET -1e-06 7.550063 -0.815971
          CHANNELS 3 Zrotation Yrotation Xrotation
          JOINT Neck1
          {
            OFFSET -0.181677 26.311295 -0.553348
            CHANNELS 3 Zrotation Yrotation Xrotation
            JOINT Neck2
            {
              OFFSET -3e-06 7.709397 2.302585
              CHANNELS 3 Zrotation Yrotation Xrotation
              JOINT Head
              {
                OFFSET -5e-06 6.128916 1.953709
                CHANNELS 3 Zrotation Yrotation Xrotation
                JOINT HeadEnd
                {
                  OFFSET 0.003598 16.065403 -1.835379
                  CHANNELS 3 Zrotation Yrotation Xrotation
                }
                JOINT Jaw
                {
                  OFFSET 0.002637 0.475592 3.094941
                  CHANNELS 3 Zrotation Yrotation Xrotation
                }
                JOINT LeftEye
                {
                  OFFSET 3.206381 5.380205 7.586883
                  CHANNELS 3 Zrotation Yrotation Xrotation
                }
                JOINT RightEye
                {
                  OFFSET -3.22244 5.361869 7.558234
                  CHANNELS 3 Zrotation Yrotation Xrotation
                }
              }
            }
          }
          JOINT LeftShoulder
          {
            OFFSET 1.621652 23.237164 5.113413
            CHANNELS 3 Zrotation Yrotation Xrotation
            JOINT LeftArm
            {
              OFFSET 14.919846 2e-06 -5.502326
              CHANNELS 3 Zrotation Yrotation Xrotation
              JOINT LeftForeArm
              {
                OFFSET 28.739307 0.0 -0.002588
                CHANNELS 3 Zrotation Yrotation Xrotation
                JOINT LeftHand
                {
                  OFFSET 27.093981 -1e-06 0.002609
                  CHANNELS 3 Zrotation Yrotation Xrotation
                  JOINT LeftHandThumb1
                  {
                    OFFSET 2.276482 -1.392045 3.191413
                    CHANNELS 3 Zrotation Yrotation Xrotation
                    JOINT LeftHandThumb2
                    {
                      OFFSET 4.012836 -1.828127 1.641654
                      CHANNELS 3 Zrotation Yrotation Xrotation
                      JOINT LeftHandThumb3
                      {
                        OFFSET 2.798515 0.0 -3e-06
                        CHANNELS 3 Zrotation Yrotation Xrotation
                        JOINT LeftHandThumbEnd
                        {
                          OFFSET 3.180793 -4e-06 4e-06
                          CHANNELS 3 Zrotation Yrotation Xrotation
                        }
                      }
                    }
                  }
                  JOINT LeftHandIndex1
                  {
                    OFFSET 3.247555 -0.531998 2.296169
                    CHANNELS 3 Zrotation Yrotation Xrotation
                    JOINT LeftHandIndex2
                    {
                      OFFSET 6.364578 0.01206 0.1786
                      CHANNELS 3 Zrotation Yrotation Xrotation
                      JOINT LeftHandIndex3
                      {
                        OFFSET 3.662364 0.0 0.0
                        CHANNELS 3 Zrotation Yrotation Xrotation
                        JOINT LeftHandIndex4
                        {
                          OFFSET 2.329242 4e-06 4e-06
                          CHANNELS 3 Zrotation Yrotation Xrotation
                          JOINT LeftHandIndexEnd
                          {
                            OFFSET 2.759615 -0.180537 -0.113024
                            CHANNELS 3 Zrotation Yrotation Xrotation
                          }
                        }
                      }
                    }
                  }
                  JOINT LeftHandMiddle1
                  {
                    OFFSET 3.163495 0.240981 1.000332
                    CHANNELS 3 Zrotation Yrotation Xrotation
                    JOINT LeftHandMiddle2
                    {
                      OFFSET 6.19078 -0.259278 -1.002548
                      CHANNELS 3 Zrotation Yrotation Xrotation
                      JOINT LeftHandMiddle3
                      {
                        OFFSET 4.35652 -4e-06 -1e-06
                        CHANNELS 3 Zrotation Yrotation Xrotation
                        JOINT LeftHandMiddle4
                        {
                          OFFSET 2.996877 -8e-06 0.0
                          CHANNELS 3 Zrotation Yrotation Xrotation
                          JOINT LeftHandMiddleEnd
                          {
                            OFFSET 2.304287 -0.294569 -0.031741
                            CHANNELS 3 Zrotation Yrotation Xrotation
                          }
                        }
                      }
                    }
                  }
                  JOINT LeftHandRing1
                  {
                    OFFSET 2.882643 -0.053652 -0.322543
                    CHANNELS 3 Zrotation Yrotation Xrotation
                    JOINT LeftHandRing2
                    {
                      OFFSET 5.854541 -0.486202 -1.373841
                      CHANNELS 3 Zrotation Yrotation Xrotation
                      JOINT LeftHandRing3
                      {
                        OFFSET 4.350578 0.0 3e-06
                        CHANNELS 3 Zrotation Yrotation Xrotation
                        JOINT LeftHandRing4
                        {
                          OFFSET 2.651321 7e-06 2e-06
                          CHANNELS 3 Zrotation Yrotation Xrotation
                          JOINT LeftHandRingEnd
                          {
                            OFFSET 1.936105 0.077687 -7.1e-05
                            CHANNELS 3 Zrotation Yrotation Xrotation
                          }
                        }
                      }
                    }
                  }
                  JOINT LeftHandPinky1
                  {
                    OFFSET 2.8655 -0.310005 -1.600378
                    CHANNELS 3 Zrotation Yrotation Xrotation
                    JOINT LeftHandPinky2
                    {
                      OFFSET 5.087849 -1.331141 -1.77123
                      CHANNELS 3 Zrotation Yrotation Xrotation
                      JOINT LeftHandPinky3
                      {
                        OFFSET 3.070974 4e-06 0.0
                        CHANNELS 3 Zrotation Yrotation Xrotation
                        JOINT LeftHandPinky4
                        {
                          OFFSET 1.549672 0.0 1e-06
                          CHANNELS 3 Zrotation Yrotation Xrotation
                          JOINT LeftHandPinkyEnd
                          {
                            OFFSET 1.944893 -0.157802 0.057219
                            CHANNELS 3 Zrotation Yrotation Xrotation
                          }
                        }
                      }
                    }
                  }
                }
              }
            }
          }
          JOINT RightShoulder
          {
            OFFSET -1.380118 23.180309 5.214158
            CHANNELS 3 Zrotation Yrotation Xrotation
            JOINT RightArm
            {
              OFFSET -15.037196 1.2e-05 -5.545604
              CHANNELS 3 Zrotation Yrotation Xrotation
              JOINT RightForeArm
              {
                OFFSET -28.736639 2e-06 -0.002597
                CHANNELS 3 Zrotation Yrotation Xrotation
                JOINT RightHand
                {
                  OFFSET -27.133619 -0.0 0.002613
                  CHANNELS 3 Zrotation Yrotation Xrotation
                  JOINT RightHandThumb1
                  {
                    OFFSET -2.274032 -1.383988 3.163127
                    CHANNELS 3 Zrotation Yrotation Xrotation
                    JOINT RightHandThumb2
                    {
                      OFFSET -4.011429 -1.827466 1.640914
                      CHANNELS 3 Zrotation Yrotation Xrotation
                      JOINT RightHandThumb3
                      {
                        OFFSET -2.794935 -4e-06 -3e-06
                        CHANNELS 3 Zrotation Yrotation Xrotation
                        JOINT RightHandThumbEnd
                        {
                          OFFSET -3.183852 4e-06 1e-06
                          CHANNELS 3 Zrotation Yrotation Xrotation
                        }
                      }
                    }
                  }
                  JOINT RightHandIndex1
                  {
                    OFFSET -3.253266 -0.520057 2.282866
                    CHANNELS 3 Zrotation Yrotation Xrotation
                    JOINT RightHandIndex2
                    {
                      OFFSET -6.341917 0.012471 0.178266
                      CHANNELS 3 Zrotation Yrotation Xrotation
                      JOINT RightHandIndex3
                      {
                        OFFSET -3.654871 -8e-06 -0.0
                        CHANNELS 3 Zrotation Yrotation Xrotation
                        JOINT RightHandIndex4
                        {
                          OFFSET -2.327586 0.0 1e-06
                          CHANNELS 3 Zrotation Yrotation Xrotation
                          JOINT RightHandIndexEnd
                          {
                            OFFSET -2.76179 -0.180656 -0.113078
                            CHANNELS 3 Zrotation Yrotation Xrotation
                          }
                        }
                      }
                    }
                  }
                  JOINT RightHandMiddle1
                  {
                    OFFSET -3.168106 0.246593 1.00103
                    CHANNELS 3 Zrotation Yrotation Xrotation
                    JOINT RightHandMiddle2
                    {
                      OFFSET -6.180828 -0.258836 -1.000895
                      CHANNELS 3 Zrotation Yrotation Xrotation
                      JOINT RightHandMiddle3
                      {
                        OFFSET -4.348901 0.0 -0.0
                        CHANNELS 3 Zrotation Yrotation Xrotation
                        JOINT RightHandMiddle4
                        {
                          OFFSET -3.00024 -4e-06 -2e-06
                          CHANNELS 3 Zrotation Yrotation Xrotation
                          JOINT RightHandMiddleEnd
                          {
                            OFFSET -2.30252 -0.29437 -0.031706
                            CHANNELS 3 Zrotation Yrotation Xrotation
                          }
                        }
                      }
                    }
                  }
                  JOINT RightHandRing1
                  {
                    OFFSET -2.88569 -0.067952 -0.308858
                    CHANNELS 3 Zrotation Yrotation Xrotation
                    JOINT RightHandRing2
                    {
                      OFFSET -5.854198 -0.48613 -1.373731
                      CHANNELS 3 Zrotation Yrotation Xrotation
                      JOINT RightHandRing3
                      {
                        OFFSET -4.33881 -4e-06 -0.0
                        CHANNELS 3 Zrotation Yrotation Xrotation
                        JOINT RightHandRing4
                        {
                          OFFSET -2.654903 -4e-06 4e-06
                          CHANNELS 3 Zrotation Yrotation Xrotation
                          JOINT RightHandRingEnd
                          {
                            OFFSET -1.933568 0.077527 -5.2e-05
                            CHANNELS 3 Zrotation Yrotation Xrotation
                          }
                        }
                      }
                    }
                  }
                  JOINT RightHandPinky1
                  {
                    OFFSET -2.866425 -0.342796 -1.584145
                    CHANNELS 3 Zrotation Yrotation Xrotation
                    JOINT RightHandPinky2
                    {
                      OFFSET -5.091371 -1.332055 -1.772385
                      CHANNELS 3 Zrotation Yrotation Xrotation
                      JOINT RightHandPinky3
                      {
                        OFFSET -3.062664 -4e-06 1e-06
                        CHANNELS 3 Zrotation Yrotation Xrotation
                        JOINT RightHandPinky4
                        {
                          OFFSET -1.546529 4e-06 -2e-06
                          CHANNELS 3 Zrotation Yrotation Xrotation
                          JOINT RightHandPinkyEnd
                          {
                            OFFSET -1.945119 -0.157718 0.057211
                            CHANNELS 3 Zrotation Yrotation Xrotation
                          }
                        }
                      }
                    }
                  }
                }
              }
            }
          }
        }
      }
    }
    JOINT LeftLeg
    {
      OFFSET 10.043214 -8.434526 2.595655
      CHANNELS 3 Zrotation Yrotation Xrotation
      JOINT LeftShin
      {
        OFFSET -1e-06 -43.221752 -0.802913
        CHANNELS 3 Zrotation Yrotation Xrotation
        JOINT LeftFoot
        {
          OFFSET 1e-06 -42.155094 -3.481523
          CHANNELS 3 Zrotation Yrotation Xrotation
          JOINT LeftToeBase
          {
            OFFSET 0.0 -5.059472 13.231529
            CHANNELS 3 Zrotation Yrotation Xrotation
            JOINT LeftToeEnd
            {
              OFFSET -0.009607 -1.647619 6.513017
              CHANNELS 3 Zrotation Yrotation Xrotation
            }
          }
        }
      }
    }
    JOINT RightLeg
    {
      OFFSET -10.047278 -8.29526 2.620317
      CHANNELS 3 Zrotation Yrotation Xrotation
      JOINT RightShin
      {
        OFFSET 1e-06 -43.362206 -0.805556
        CHANNELS 3 Zrotation Yrotation Xrotation
        JOINT RightFoot
        {
          OFFSET 2e-06 -42.117393 -3.478398
          CHANNELS 3 Zrotation Yrotation Xrotation
          JOINT RightToeBase
          {
            OFFSET -0.0 -5.079609 13.284196
            CHANNELS 3 Zrotation Yrotation Xrotation
            JOINT RightToeEnd
            {
              OFFSET 0.009532 -1.634378 6.460591
              CHANNELS 3 Zrotation Yrotation Xrotation
            }
          }
        }
      }
    }
  }
}
MOTION
Frames: 4
Frame Time: 0.03333333333333333
0.0 0.0 0.0 0.0 -0.0 0.0 0.565872 100.394096 0.555988 0.156282 -1.898225 0.422376 -0.026566 -0.124861 -4.37111 -0.66775 0.444414 -6.871342 -1.415037 -2.104081 12.462571 1.71397 1.747448 -1.502584 0.13524 2.513207 -3.586866 0.729166 1.935138 -8.277107 7.7e-05 -2.2e-05 6e-06 -0.021804 -0.177822 0.01743 0.649502 -3.911426 -10.44828 -0.690969 3.560546 -10.430516 -3.285337 -9.91713 14.800652 -60.576305 -19.433157 0.358668 -0.437835 -23.021822 0.022032 8.930481 -0.640967 -4.022463 -5.882111 9.861294 0.702591 -10.93688 -0.360573 7.156207 1e-06 8.774834 2e-06 -16.072004 18.622618 6.281014 -1.844034 2.498506 -2.50728 -10.16361 4.67895 4.62111 -20.976044 -3e-06 -1e-06 -21.226307 2.451698 -3.594006 1e-06 -5e-06 -0.0 -1.362682 2.240799 -0.746324 -21.33493 0.584911 3.008321 -13.821224 -3e-06 -0.0 -23.887188 -0.24908 -0.839486 -59.953651 2.743805 -1.295143 -0.294026 1.679689 0.833257 -14.218222 0.093216 1.300578 -34.212078 -0.287567 0.967163 -20.03323 0.964536 1.212841 2e-06 2e-06 -1e-06 -3.440391 0.788234 0.501655 -15.928201 -3.16731 2.999707 -6.338832 -1e-06 1e-06 -18.123463 3.648186 -4.905679 -4e-06 0.0 -1e-06 9.412408 11.379617 17.115826 62.294476 27.923437 6.42245 0.132644 23.317705 0.040987 -25.497927 7.845167 12.947635 2.243542 -5.255037 -3.180158 14.282896 -0.826594 6.952502 -3e-06 -12.690607 -0.0 16.451704 -18.095356 2.212769 1.665667 -1.955922 -2.8783 4.727799 -4.170588 4.993924 11.020528 4e-06 -3e-06 12.109055 -3.735715 -2.866784 -0.0 1e-06 1e-06 1.291986 -1.928549 -1.49809 14.800134 0.567471 3.865606 14.242576 -1.341734 -6.660659 19.631973 0.143927 -0.648245 49.292702 -0.693165 -6.497376 0.353029 -1.511151 -0.03194 20.222797 3.68431 2.31663 18.787273 5e-06 -1e-06 10.751629 -0.479868 1.397905 -0.0 -1e-06 -0.0 3.273808 0.305948 -0.580112 21.486818 11.830377 2.266133 8.162927 3e-06 -1e-06 18.399082 -3.798982 -4.940578 3e-06 1e-06 0.0 1.754149 8.695271 0.147139 -0.063914 -0.005958 3.500356 -2.733637 -2.378691 -2.772488 1.653317 -1.905661 0.092781 -0.0 0.0 2e-06 -2.611023 -5.87476 -1.100235 0.035894 0.006396 5.71137 3.748203 -3.345246 -5.780098 -1.405362 1.083231 -0.468819 0.0 0.0 -1e-06 
0.0 0.0 0.0 0.0 -0.0 0.0 0.541991 100.383698 0.408438 0.026163 -1.903962 0.406592 0.014195 -0.139886 -4.518363 -0.69213 0.491456 -6.931858 -1.56037 -2.070872 12.454454 2.08012 1.615981 -1.750961 0.205547 2.601747 -3.598265 0.858418 1.955287 -8.758202 7.7e-05 -2.3e-05 6e-06 -0.023124 -0.17441 0.017201 0.638077 -3.907313 -10.432727 -0.681861 3.560601 -10.408629 -2.084034 -10.45364 14.667458 -57.622284 -22.207428 -2.156225 -0.707727 -23.385921 0.205886 9.195456 -1.238367 -5.025186 -5.88211 9.861288 0.702589 -10.936875 -0.360575 7.156203 -1e-06 8.774829 -0.0 -15.937571 18.675415 6.455643 -1.844033 2.498506 -2.507279 -10.163601 4.678945 4.621108 -20.976027 -3e-06 -0.0 -21.226294 2.451696 -3.594005 1e-06 -7e-06 -2e-06 -1.362682 2.240799 -0.746323 -21.334919 0.584909 3.008321 -13.821217 -3e-06 -0.0 -23.887175 -0.24908 -0.839486 -59.986431 2.801575 -1.253378 -0.294025 1.679688 0.833256 -14.218214 0.093216 1.300579 -34.212059 -0.287564 0.967164 -20.033218 0.964536 1.212842 2e-06 2e-06 -0.0 -3.44039 0.788235 0.501656 -15.928189 -3.16731 2.999707 -6.338829 1e-06 -0.0 -18.123451 3.648183 -4.905674 -4e-06 0.0 -1e-06 8.110119 11.751158 16.681458 60.561272 31.405046 5.617192 0.242692 24.249035 0.160819 -27.471367 8.176797 13.353144 2.243542 -5.255037 -3.180157 14.282896 -0.826597 6.952505 -4e-06 -12.690605 4e-06 16.742039 -18.089685 2.046056 1.665667 -1.955921 -2.878299 4.7278 -4.17059 4.993925 11.020528 4e-06 -1e-06 12.109055 -3.735717 -2.866784 1e-06 -0.0 2e-06 1.291986 -1.92855 -1.498089 14.800132 0.567466 3.865608 14.242576 -1.341737 -6.660655 19.631973 0.143923 -0.648245 49.387924 -0.740475 -6.539393 0.353029 -1.51115 -0.03194 20.222795 3.684309 2.316629 18.787273 3e-06 1e-06 10.751633 -0.479869 1.397907 -1e-06 0.0 1e-06 3.273807 0.305946 -0.58011 21.486816 11.830376 2.26613 8.162929 1e-06 -0.0 18.399086 -3.798987 -4.940577 3e-06 0.0 -1e-06 1.905999 8.935797 -0.174923 -0.052476 -0.016054 3.988075 -2.758488 -2.749619 -2.946733 1.655607 -1.894675 0.098993 -0.0 0.0 2e-06 -2.418665 -5.670919 -1.092716 0.028399 0.002003 5.54443 3.66775 -3.528978 -5.595501 -1.405838 1.090169 -0.41234 -0.0 0.0 -1e-06 
0.0 0.0 0.0 0.0 -0.0 0.0 0.502492 100.368118 0.262822 -0.109458 -1.88321 0.352906 0.049907 -0.152644 -4.689283 -0.706623 0.546897 -6.996334 -1.688456 -2.030807 12.419793 2.450179 1.491488 -1.967486 0.269722 2.690005 -3.612088 0.959637 1.919943 -9.093148 7.7e-05 -2.3e-05 6e-06 -0.02455 -0.170509 0.014894 0.628294 -3.902814 -10.42276 -0.674707 3.562186 -10.390257 -0.814814 -10.94995 14.484154 -53.978848 -25.312201 -4.993738 -1.014447 -23.792734 0.413611 9.557204 -1.971545 -5.92834 -5.882111 9.861289 0.702591 -10.93688 -0.360575 7.156208 1e-06 8.77483 0.0 -15.722552 18.739573 6.690188 -1.844034 2.498505 -2.507279 -10.163604 4.678946 4.62111 -20.976038 -6e-06 1e-06 -21.226299 2.451694 -3.594 -0.0 -7e-06 0.0 -1.362682 2.240799 -0.746325 -21.334927 0.584907 3.008324 -13.821221 -3e-06 2e-06 -23.887184 -0.249081 -0.839484 -60.02039 2.870557 -1.195078 -0.294025 1.679689 0.833258 -14.218215 0.093215 1.30058 -34.212067 -0.287565 0.96717 -20.033226 0.964538 1.212842 -0.0 1e-06 -0.0 -3.440391 0.788233 0.501656 -15.928198 -3.16731 2.999707 -6.33883 -1e-06 -0.0 -18.123457 3.648183 -4.905673 -3e-06 0.0 -2e-06 6.672047 12.142543 16.078468 58.112713 34.982559 4.416368 0.528566 25.332386 0.321014 -28.930418 8.137488 14.02218 2.243543 -5.255036 -3.180157 14.282893 -0.826593 6.952502 -2e-06 -12.690605 3e-06 17.028091 -18.055397 1.905205 1.665666 -1.955922 -2.878299 4.727799 -4.170587 4.993924 11.020526 5e-06 -2e-06 12.109053 -3.735714 -2.866786 -1e-06 -0.0 0.0 1.291986 -1.92855 -1.49809 14.800129 0.567468 3.865606 14.242575 -1.341734 -6.660661 19.631973 0.143929 -0.648248 49.567184 -0.767012 -6.537578 0.353029 -1.511151 -0.03194 20.222795 3.68431 2.316628 18.787273 7e-06 -3e-06 10.751628 -0.479867 1.397904 -1e-06 -0.0 -0.0 3.273808 0.305947 -0.580111 21.486813 11.830376 2.26613 8.162928 2e-06 -1e-06 18.39908 -3.798983 -4.940578 2e-06 -0.0 -1e-06 2.066643 9.135133 -0.551643 -0.037215 -0.032186 4.659623 -2.755641 -3.068139 -3.250636 1.65664 -1.886048 0.073696 -0.0 0.0 2e-06 -2.213057 -5.491188 -1.053037 0.015731 0.006123 5.410778 3.554536 -3.709167 -5.420114 -1.406815 1.092365 -0.395786 0.0 0.0 -1e-06 
0.0 0.0 0.0 0.0 -0.0 0.0 0.454895 100.352951 0.129692 -0.231106 -1.829497 0.286714 0.071684 -0.150134 -4.883367 -0.714494 0.591668 -7.066071 -1.802896 -1.982595 12.38082 2.816788 1.384536 -2.300497 0.29857 2.739377 -3.624671 1.049333 1.850399 -9.37459 7.7e-05 -2.3e-05 6e-06 -0.024928 -0.161258 0.01367 0.620951 -3.892424 -10.407404 -0.66799 3.569365 -10.36772 0.531812 -11.403934 14.201406 -49.705936 -28.526966 -8.316639 -1.320234 -24.299549 0.578802 10.088899 -2.863259 -6.725935 -5.882109 9.861292 0.702592 -10.936878 -0.360574 7.156209 0.0 8.774828 -0.0 -15.449606 18.767368 6.915273 -1.844035 2.498507 -2.50728 -10.163606 4.67895 4.621112 -20.97604 -3e-06 0.0 -21.226301 2.451698 -3.594005 -0.0 -6e-06 -1e-06 -1.362682 2.240798 -0.746323 -21.334929 0.584912 3.008324 -13.821223 -1e-06 2e-06 -23.887184 -0.249076 -0.839486 -59.986965 2.92682 -1.124806 -0.294025 1.679687 0.833258 -14.218219 0.093215 1.30058 -34.212078 -0.28756 0.967169 -20.03323 0.96454 1.212843 3e-06 1e-06 -0.0 -3.440391 0.788234 0.501656 -15.928196 -3.16731 2.999709 -6.33883 0.0 0.0 -18.123459 3.648185 -4.905673 -5e-06 2e-06 -2e-06 5.173599 12.541795 15.323565 54.814304 38.46413 2.420688 0.983999 26.548939 0.492002 -29.912077 7.832809 15.097653 2.243543 -5.25504 -3.180159 14.2829 -0.826596 6.952505 -1e-06 -12.69061 1e-06 17.206514 -18.028625 1.838401 1.665668 -1.955923 -2.878302 4.727802 -4.17059 4.993927 11.020534 1e-06 -3e-06 12.109059 -3.735719 -2.866787 1e-06 -0.0 -1e-06 1.291987 -1.928552 -1.498091 14.800138 0.567467 3.865609 14.242582 -1.341736 -6.660663 19.631981 0.143926 -0.648248 49.775433 -0.770162 -6.499952 0.353029 -1.511151 -0.031939 20.222803 3.68431 2.316631 18.787287 3e-06 -3e-06 10.751634 -0.479869 1.397904 0.0 0.0 0.0 3.273809 0.305946 -0.580111 21.486828 11.830381 2.266131 8.162935 2e-06 -2e-06 18.399097 -3.798988 -4.940581 2e-06 -1e-06 -1e-06 2.215017 9.248524 -0.923016 -0.023826 -0.051165 5.349246 -2.753308 -3.303371 -3.580379 1.655942 -1.87787 0.02945 -0.0 -0.0 2e-06 -2.025285 -5.376676 -0.991491 0.005899 0.009277 5.291502 3.447097 -3.841985 -5.264341 -1.407896 1.087212 -0.407152 -0.0 0.0 -1e-06 
